<?xml version="1.0" encoding="UTF-8"?>
<!-- Generator: Adobe Illustrator 25.0.0, SVG Export Plug-In . SVG Version: 6.00 Build 0)  -->
<svg version="1.1" id="Layer_1" xmlns="http://www.w3.org/2000/svg" xmlns:xlink="http://www.w3.org/1999/xlink" x="0px" y="0px" viewBox="0 0 54 54" style="enable-background:new 0 0 54 54;" xml:space="preserve">
<style type="text/css">
	.st0{fill:#0376BC;}
</style>
<path class="st0" d="M49.4,28.9c0,1-0.7,1.4-1.4,1.7c-5.2,3-10.5,6-15.7,9c-2.4,1.4-4.7,2.7-7.1,4.1c-0.8,0.5-1.5,0.5-2.3,0  c-5.4-3.5-10.8-7-16.2-10.5c-0.6-0.4-1.1-0.8-1-1.6c0-0.7,0.5-1.1,1.1-1.4s1,0,1.4,0.2c5,3.2,10,6.5,15,9.7c0.8,0.5,1.3,0.5,2.1,0  c7.2-4.2,14.5-8.4,21.7-12.6c0.5-0.3,0.9-0.5,1.5-0.1C49,27.8,49.4,28.3,49.4,28.9z"/>
<path class="st0" d="M49.4,35c0,0.7-0.4,1.1-0.9,1.4c-7.8,4.7-15.6,9.3-23.4,14c-0.7,0.4-1.4,0.4-2.1-0.1  c-5.5-3.7-10.9-7.4-16.4-11.1c-0.4-0.3-0.7-0.6-0.9-1.1c-0.2-0.7,0.1-1.2,0.6-1.7c0.5-0.4,1-0.3,1.5,0.1c5.1,3.4,10.3,6.8,15.4,10.2  c0.7,0.5,1.2,0.5,1.9,0C32.4,42.3,39.8,38,47,33.6c0.5-0.3,0.9-0.6,1.5-0.2C49,34,49.3,34.4,49.4,35z"/>
<g>
	<path class="st0" d="M39.9,12.6c-0.6,0-1-0.1-1.4-0.7C33.3,4.1,22.3,4.7,18,13c-0.3,0.6-0.7,0.8-1.4,0.8c-7-0.2-11.2,4-11.1,10.9   c0,1,0.4,1.7,1.2,2.2c1.7,1.1,3.3,2.1,5,3.2c1.3,0.9,2.8,1.3,4.4,1.3c2.8,0,5.7,0,8.5,0s5.7,0,8.5,0c1.5,0,3-0.2,4.3-1   c3.7-2,7.3-4.2,10.8-6.4c0.7-0.5,1-1.1,1-2C49.5,16.3,45.8,12.5,39.9,12.6z M44.8,22.6c-2.9,1.9-5.9,3.7-9,5.2   c-1.8,0.9-3.5,0.5-5.3-0.3c-1.9-0.9-3.5-2.1-5-3.6c-1.2-1.2-1.8-1.1-3,0c-1.6,1.6-3.2,3-5.3,3.9c-1.4,0.6-2.7,0.6-3.9-0.4   c-0.9-0.7-1.8-1.2-2.8-1.8c-0.8-0.5-1-1.1-1.1-2c-0.2-4.6,3.7-6.3,7.2-6.1c1,0,2,0.3,2.9,0.9c0.6,0.4,0.8,0.2,0.9-0.5   c0.5-4.1,3.1-7,6.7-7.5c4.4-0.7,8.3,2,9.1,6.3c0.1,0.4,0.2,0.8,0.3,1.3c0.5,0,0.7-0.5,1.1-0.7c1.6-1,3.3-1.2,5.1-0.3   c1.7,0.9,2.5,2.3,2.6,4.2C45.5,21.8,45.3,22.3,44.8,22.6z"/>
</g>
</svg>